<?xml version="1.0" encoding="iso-8859-1"?>
<!-- Generator: Adobe Illustrator 19.0.0, SVG Export Plug-In . SVG Version: 6.00 Build 0)  -->
<svg version="1.1" id="Layer_1" xmlns="http://www.w3.org/2000/svg" xmlns:xlink="http://www.w3.org/1999/xlink" x="0px" y="0px"
	 viewBox="0 0 491.52 491.52" style="enable-background:new 0 0 491.52 491.52;" xml:space="preserve">
<g>
	<g>
		<rect x="430.08" y="40.96" width="20.48" height="20.48"/>
	</g>
</g>
<g>
	<g>
		<rect x="389.12" y="40.96" width="20.48" height="20.48"/>
	</g>
</g>
<g>
	<g>
		<rect x="348.16" y="40.96" width="20.48" height="20.48"/>
	</g>
</g>
<g>
	<g>
		<rect x="51.2" y="40.96" width="266.24" height="20.48"/>
	</g>
</g>
<g>
	<g>
		<path d="M0,0v491.52h491.52V0H0z M471.04,471.04H20.48V102.4h450.56V471.04z M471.04,81.92H20.48V20.48h450.56V81.92z"/>
	</g>
</g>
<g>
	<g>
		<polygon points="102.4,317.535 102.4,245.855 81.92,245.855 81.92,256.095 71.68,256.095 71.68,276.575 81.92,276.575 
			81.92,317.535 71.68,317.535 71.68,338.015 112.64,338.015 112.64,317.535 		"/>
	</g>
</g>
<g>
	<g>
		<polygon points="256,317.535 256,245.855 235.52,245.855 235.52,256.095 225.28,256.095 225.28,276.575 235.52,276.575 
			235.52,317.535 225.28,317.535 225.28,338.015 266.24,338.015 266.24,317.535 		"/>
	</g>
</g>
<g>
	<g>
		<polygon points="327.68,317.535 327.68,245.855 307.2,245.855 307.2,256.095 296.96,256.095 296.96,276.575 307.2,276.575 
			307.2,317.535 296.96,317.535 296.96,338.015 337.92,338.015 337.92,317.535 		"/>
	</g>
</g>
<g>
	<g>
		<path d="M163.84,245.855c-16.94,0-30.72,13.78-30.72,30.72v30.72c0,16.94,13.78,30.72,30.72,30.72s30.72-13.78,30.72-30.72v-30.72
			C194.56,259.635,180.78,245.855,163.84,245.855z M174.08,307.295c0,5.645-4.595,10.24-10.24,10.24
			c-5.645,0-10.24-4.595-10.24-10.24v-30.72c0-5.645,4.595-10.24,10.24-10.24c5.645,0,10.24,4.595,10.24,10.24V307.295z"/>
	</g>
</g>
<g>
	<g>
		<path d="M389.12,245.855c-16.94,0-30.72,13.78-30.72,30.72v30.72c0,16.94,13.78,30.72,30.72,30.72s30.72-13.78,30.72-30.72v-30.72
			C419.84,259.635,406.06,245.855,389.12,245.855z M399.36,307.295c0,5.645-4.595,10.24-10.24,10.24s-10.24-4.595-10.24-10.24
			v-30.72c0-5.645,4.595-10.24,10.24-10.24s10.24,4.595,10.24,10.24V307.295z"/>
	</g>
</g>
<g>
	<g>
		<polygon points="102.4,204.8 102.4,133.12 81.92,133.12 81.92,143.36 71.68,143.36 71.68,163.84 81.92,163.84 81.92,204.8 
			71.68,204.8 71.68,225.28 112.64,225.28 112.64,204.8 		"/>
	</g>
</g>
<g>
	<g>
		<polygon points="174.08,204.8 174.08,133.12 153.6,133.12 153.6,143.36 143.36,143.36 143.36,163.84 153.6,163.84 153.6,204.8 
			143.36,204.8 143.36,225.28 184.32,225.28 184.32,204.8 		"/>
	</g>
</g>
<g>
	<g>
		<polygon points="327.68,204.8 327.68,133.12 307.2,133.12 307.2,143.36 296.96,143.36 296.96,163.84 307.2,163.84 307.2,204.8 
			296.96,204.8 296.96,225.28 337.92,225.28 337.92,204.8 		"/>
	</g>
</g>
<g>
	<g>
		<path d="M245.76,133.12c-16.94,0-30.72,13.78-30.72,30.72v30.72c0,16.94,13.78,30.72,30.72,30.72s30.72-13.78,30.72-30.72v-30.72
			C276.48,146.9,262.7,133.12,245.76,133.12z M256,194.56c0,5.645-4.595,10.24-10.24,10.24s-10.24-4.595-10.24-10.24v-30.72
			c0-5.645,4.595-10.24,10.24-10.24S256,158.195,256,163.84V194.56z"/>
	</g>
</g>
<g>
	<g>
		<path d="M389.12,133.12c-16.94,0-30.72,13.78-30.72,30.72v30.72c0,16.94,13.78,30.72,30.72,30.72s30.72-13.78,30.72-30.72v-30.72
			C419.84,146.9,406.06,133.12,389.12,133.12z M399.36,194.56c0,5.645-4.595,10.24-10.24,10.24s-10.24-4.595-10.24-10.24v-30.72
			c0-5.645,4.595-10.24,10.24-10.24s10.24,4.595,10.24,10.24V194.56z"/>
	</g>
</g>
<g>
	<g>
		<polygon points="102.4,430.08 102.4,358.4 81.92,358.4 81.92,368.64 71.68,368.64 71.68,389.12 81.92,389.12 81.92,430.08 
			71.68,430.08 71.68,450.56 112.64,450.56 112.64,430.08 		"/>
	</g>
</g>
<g>
	<g>
		<polygon points="174.08,430.08 174.08,358.4 153.6,358.4 153.6,368.64 143.36,368.64 143.36,389.12 153.6,389.12 153.6,430.08 
			143.36,430.08 143.36,450.56 184.32,450.56 184.32,430.08 		"/>
	</g>
</g>
<g>
	<g>
		<polygon points="327.68,430.08 327.68,358.4 307.2,358.4 307.2,368.64 296.96,368.64 296.96,389.12 307.2,389.12 307.2,430.08 
			296.96,430.08 296.96,450.56 337.92,450.56 337.92,430.08 		"/>
	</g>
</g>
<g>
	<g>
		<path d="M245.76,358.4c-16.94,0-30.72,13.78-30.72,30.72v30.72c0,16.94,13.78,30.72,30.72,30.72s30.72-13.78,30.72-30.72v-30.72
			C276.48,372.18,262.7,358.4,245.76,358.4z M256,419.84c0,5.645-4.595,10.24-10.24,10.24s-10.24-4.595-10.24-10.24v-30.72
			c0-5.645,4.595-10.24,10.24-10.24S256,383.475,256,389.12V419.84z"/>
	</g>
</g>
<g>
	<g>
		<path d="M389.12,358.4c-16.94,0-30.72,13.78-30.72,30.72v30.72c0,16.94,13.78,30.72,30.72,30.72s30.72-13.78,30.72-30.72v-30.72
			C419.84,372.18,406.06,358.4,389.12,358.4z M399.36,419.84c0,5.645-4.595,10.24-10.24,10.24s-10.24-4.595-10.24-10.24v-30.72
			c0-5.645,4.595-10.24,10.24-10.24s10.24,4.595,10.24,10.24V419.84z"/>
	</g>
</g>
<g>
</g>
<g>
</g>
<g>
</g>
<g>
</g>
<g>
</g>
<g>
</g>
<g>
</g>
<g>
</g>
<g>
</g>
<g>
</g>
<g>
</g>
<g>
</g>
<g>
</g>
<g>
</g>
<g>
</g>
</svg>
