<?xml version="1.0" encoding="iso-8859-1"?>
<!-- Generator: Adobe Illustrator 19.0.0, SVG Export Plug-In . SVG Version: 6.00 Build 0)  -->
<svg version="1.1" id="Capa_1" xmlns="http://www.w3.org/2000/svg" xmlns:xlink="http://www.w3.org/1999/xlink" x="0px" y="0px"
	 viewBox="0 0 512.002 512.002" style="enable-background:new 0 0 512.002 512.002;" xml:space="preserve">
<g>
	<g>
		<g>
			<path d="M473.623,426.883c-21.793-2.202-41.712,12.456-46.093,33.917H297.805c-2.131-10.151-7.893-19.176-16.204-25.381v-42.885
				h187.733c23.553-0.028,42.639-19.114,42.667-42.667v-34.133c-0.012-9.421-7.646-17.054-17.067-17.067V25.6
				c-0.015-14.132-11.468-25.585-25.6-25.6H42.668c-14.132,0.015-25.585,11.468-25.6,25.6v273.067
				c-9.421,0.011-17.056,7.645-17.067,17.067v34.133c0.028,23.553,19.114,42.639,42.667,42.667h187.733v42.885
				c-8.312,6.205-14.073,15.23-16.204,25.381H84.472c-4.381-21.461-24.3-36.119-46.093-33.917
				c-21.793,2.201-38.378,20.547-38.378,42.451c0,21.904,16.586,40.249,38.378,42.451c21.793,2.201,41.712-12.456,46.093-33.917
				h129.725C218.252,497.732,235.727,512,256.001,512c20.275,0,37.749-14.268,41.804-34.133H427.53
				c4.381,21.461,24.3,36.119,46.093,33.917c21.793-2.202,38.378-20.547,38.378-42.451
				C512.002,447.43,495.416,429.084,473.623,426.883z M42.668,494.933c-14.138,0-25.6-11.461-25.6-25.6s11.462-25.6,25.6-25.6
				s25.6,11.462,25.6,25.6C68.252,483.465,56.8,494.918,42.668,494.933z M34.135,25.6c0.005-4.711,3.822-8.529,8.533-8.533h426.667
				c4.711,0.003,8.53,3.822,8.533,8.533v273.067h-17.067V51.2c-0.019-5.238-2.453-10.174-6.598-13.377
				c-0.127-0.089-0.227-0.212-0.358-0.296c-2.916-2.192-6.462-3.382-10.11-3.394H68.268c-9.421,0.011-17.056,7.645-17.067,17.067
				v247.467H34.135V25.6z M87.665,298.667l73.156-49.294c27.878,19.848,60.978,31.055,95.18,32.227
				c92.779,0,165.925-97.442,168.992-101.592c2.233-3.015,2.233-7.135,0-10.15c-17.07-22.018-36.885-41.764-58.963-58.756
				l77.705-52.359v239.923h-102.4H87.665z M327.526,315.733l-6.175,12.35c-1.437,2.897-4.395,4.726-7.629,4.717H198.28
				c-3.234,0.01-6.192-1.819-7.629-4.717l-6.175-12.35H327.526z M163.669,226.881l-2.47,1.664
				c-20.899-15.54-39.852-33.54-56.448-53.611c18.167-22.005,39.193-41.483,62.52-57.917
				c-11.159,17.255-17.091,37.368-17.082,57.917C150.179,193.116,154.819,210.998,163.669,226.881z M177.394,133.581
				c13.677-26.28,39.439-44.12,68.85-47.678c3.238-0.274,6.474-0.571,9.757-0.571c3.283,0,6.519,0.297,9.757,0.571
				c23.168,2.619,44.364,14.28,58.979,32.447l-40.202,27.089c-7.597-7.515-17.848-11.736-28.534-11.748
				c-13.645,0.058-26.373,6.879-33.978,18.209s-9.096,25.693-3.981,38.343l-40.194,27.083
				C163.887,191.197,163.717,159.861,177.394,133.581z M279.254,169.571c0.411,1.758,0.626,3.556,0.638,5.362
				c0.064,13.268-10.624,24.083-23.892,24.175c-4.978-0.011-9.824-1.602-13.84-4.543L279.254,169.571z M232.758,180.327
				c-0.417-1.768-0.635-3.577-0.648-5.394c-0.064-13.268,10.624-24.083,23.892-24.175c4.989,0.011,9.846,1.61,13.866,4.565
				L232.758,180.327z M227.494,204.448c7.593,7.502,17.833,11.715,28.508,11.727c13.64-0.056,26.364-6.87,33.97-18.192
				c7.606-11.322,9.104-25.678,3.999-38.327l40.198-27.086c13.95,26.13,14.111,57.458,0.433,83.731
				c-13.679,26.272-39.437,44.106-68.843,47.662c-3.238,0.274-6.474,0.571-9.757,0.571c-3.283,0-6.519-0.297-9.757-0.571
				c-23.157-2.617-44.345-14.268-58.959-32.421L227.494,204.448z M361.814,174.933c0.01-18.171-4.624-36.043-13.464-51.919
				l2.481-1.673c20.888,15.536,39.83,33.529,56.42,53.591c-18.167,22.005-39.193,41.483-62.52,57.917
				C355.89,215.595,361.823,195.482,361.814,174.933z M256.001,68.267c-92.779,0-165.925,97.442-168.996,101.592
				c-2.229,3.016-2.229,7.134,0,10.15c17.079,22.027,36.905,41.78,58.995,58.778l-77.732,52.377V51.2h356.128l-73.186,49.314
				C323.326,80.655,290.214,69.44,256.001,68.267z M42.668,375.467c-14.132-0.015-25.585-11.468-25.6-25.6h93.867
				c4.713,0,8.533-3.82,8.533-8.533s-3.82-8.533-8.533-8.533H17.068v-17.067h148.325l9.992,19.983
				c4.313,8.694,13.191,14.181,22.896,14.15h115.442c9.705,0.031,18.583-5.456,22.896-14.15l9.992-19.983h148.325V332.8h-93.867
				c-4.713,0-8.533,3.821-8.533,8.533s3.821,8.533,8.533,8.533h93.867c-0.015,14.132-11.468,25.585-25.6,25.6H42.668z
				 M264.535,392.533v34.996c-5.631-1.15-11.436-1.15-17.067,0v-34.996H264.535z M256.001,494.933c-14.138,0-25.6-11.461-25.6-25.6
				s11.461-25.6,25.6-25.6s25.6,11.462,25.6,25.6C281.586,483.465,270.133,494.918,256.001,494.933z M469.335,494.933
				c-14.138,0-25.6-11.461-25.6-25.6c0.015-14.132,11.468-25.585,25.6-25.6c14.138,0,25.6,11.462,25.6,25.6
				S483.473,494.933,469.335,494.933z"/>
			<path d="M153.601,332.8h-8.533c-4.713,0-8.533,3.821-8.533,8.533s3.82,8.533,8.533,8.533h8.533c4.713,0,8.533-3.82,8.533-8.533
				S158.314,332.8,153.601,332.8z"/>
			<path d="M366.935,332.8h-8.533c-4.713,0-8.533,3.821-8.533,8.533s3.82,8.533,8.533,8.533h8.533c4.713,0,8.533-3.82,8.533-8.533
				S371.647,332.8,366.935,332.8z"/>
		</g>
	</g>
</g>
<g>
</g>
<g>
</g>
<g>
</g>
<g>
</g>
<g>
</g>
<g>
</g>
<g>
</g>
<g>
</g>
<g>
</g>
<g>
</g>
<g>
</g>
<g>
</g>
<g>
</g>
<g>
</g>
<g>
</g>
</svg>
