<?xml version="1.0" encoding="iso-8859-1"?>
<!-- Generator: Adobe Illustrator 19.0.0, SVG Export Plug-In . SVG Version: 6.00 Build 0)  -->
<svg version="1.1" id="Capa_1" xmlns="http://www.w3.org/2000/svg" xmlns:xlink="http://www.w3.org/1999/xlink" x="0px" y="0px"
	 viewBox="0 0 512 512" style="enable-background:new 0 0 512 512;" xml:space="preserve">
<g>
	<g>
		<g>
			<path d="M384,160c0-70.692-57.308-128-128-128S128,89.308,128,160v48H96v272h320V208h-32V160z M160,160c0-53.019,42.981-96,96-96
				s96,42.981,96,96v48H160V160z M384,448H128V240h256V448z"/>
			<rect x="240" y="272" width="32" height="32"/>
			<rect x="240" y="336" width="32" height="80"/>
			<rect y="208" width="64" height="32"/>
			<rect y="272" width="32" height="32"/>
			<rect y="336" width="64" height="32"/>
			<rect y="400" width="32" height="32"/>
			<rect x="448" y="208" width="64" height="32"/>
			<rect x="480" y="272" width="32" height="32"/>
			<rect x="448" y="336" width="64" height="32"/>
			<rect x="480" y="400" width="32" height="32"/>
		</g>
	</g>
</g>
<g>
</g>
<g>
</g>
<g>
</g>
<g>
</g>
<g>
</g>
<g>
</g>
<g>
</g>
<g>
</g>
<g>
</g>
<g>
</g>
<g>
</g>
<g>
</g>
<g>
</g>
<g>
</g>
<g>
</g>
</svg>
